# xmcd CD Database Entry
#
# Track frame offsets:
# 150
# 20523
# 48910
# 86268
# 129570
# 156398
# 196630
# 233405
# 260948
# 307923
#
# Disc length: 4376 seconds
#
# Revision: 1
# Processed by: cddbd v1.4b41PL1 Copyright (c) Steve Scherf et al.
# Submitted via: tcd 2.0b
#
DISCID=7511160a
DTITLE=Joe Henderson - So Near, So Far (Musings For Miles)
DYEAR=1900
DGENRE=
TTITLE0=Miles Ahead
TTITLE1=Joshua
TTITLE2=Pfrancing (No Blues)
TTITLE3=Flamenco Sketches
TTITLE4=Milestones
TTITLE5=Teo
TTITLE6=Swing Spring
TTITLE7=Circle
TTITLE8=Side Car
TTITLE9=So Near, So Far
EXTD=
EXTT0=
EXTT1=
EXTT2=
EXTT3=
EXTT4=
EXTT5=
EXTT6=
EXTT7=
EXTT8=
EXTT9=
PLAYORDER=
